<?xml version="1.0" encoding="UTF-8"?>
<svg id="_레이어_2" data-name="레이어 2" xmlns="http://www.w3.org/2000/svg" viewBox="0 0 24.22 21.31">
  <defs>
    <style>
      .cls-1 {
        fill: #221e1f;
      }
    </style>
  </defs>
  <g id="Layer_1" data-name="Layer 1">
    <g>
      <path class="cls-1" d="M5.58,1.67c-.3-.57-.82-.85-1.57-.85-.23,0-.46.03-.69.09-.23.06-.44.16-.64.28-.19.13-.36.29-.5.49-.14.2-.23.44-.26.71-.04.3-.01.54.09.73.1.19.25.36.44.49.19.13.42.24.68.33.26.09.52.18.79.28s.53.2.78.31.47.26.66.44c.19.18.32.41.42.67s.11.6.05.99c-.06.39-.19.75-.41,1.07-.21.32-.47.58-.78.8s-.64.38-.99.49c-.36.12-.71.17-1.05.17-.54,0-1.03-.1-1.48-.3-.45-.2-.81-.53-1.09-.99l.89-.58c.14.32.37.58.68.77.31.19.7.29,1.16.29.22,0,.45-.04.68-.1.23-.07.44-.17.64-.31.2-.14.37-.3.51-.5.14-.2.23-.42.27-.68.04-.3.01-.56-.09-.76-.1-.2-.25-.37-.44-.51s-.42-.25-.67-.34c-.26-.09-.52-.18-.78-.27-.27-.09-.53-.19-.78-.31-.25-.11-.47-.26-.66-.44-.18-.18-.32-.4-.41-.67s-.11-.6-.05-1.01c.06-.42.19-.79.4-1.1.21-.31.46-.57.75-.78s.62-.36.97-.46c.35-.1.71-.15,1.06-.15.49,0,.93.08,1.31.24s.72.43,1.01.83l-.86.6Z"/>
      <path class="cls-1" d="M14,5.7c-.05.36-.15.75-.29,1.15-.14.41-.36.78-.65,1.13-.29.35-.66.63-1.11.86s-1,.34-1.65.34-1.18-.11-1.56-.34c-.38-.23-.66-.51-.85-.86-.19-.35-.3-.72-.33-1.13-.03-.41-.02-.79.03-1.15L8.37.22h.89l-.78,5.38c-.06.42-.07.78-.02,1.08.04.3.12.55.22.76s.24.37.39.49c.15.12.31.21.47.28.16.07.32.11.47.13.15.02.29.03.4.03.17,0,.38-.03.66-.08s.54-.17.82-.36c.27-.18.52-.46.75-.83s.39-.87.48-1.5L13.88.22h.89l-.77,5.48Z"/>
      <path class="cls-1" d="M22.26,7.63h.03L23.33.22h.89l-1.24,8.74h-1.11l-4.15-7.48h-.03l-1.06,7.48h-.89L16.99.22h1.12l4.15,7.41Z"/>
      <path class="cls-1" d="M1.42,20.5h4.07l-.11.81H.42l1.23-8.74h.89l-1.12,7.93Z"/>
      <path class="cls-1" d="M6.44,21.31h-1.04l5.04-8.74h.86l2.57,8.74h-1.04l-.64-2.3h-4.47l-1.28,2.3ZM8.17,18.2h3.79l-1.23-4.59-2.56,4.59Z"/>
      <path class="cls-1" d="M16.3,12.57h.89l-.54,3.79h4.77l.54-3.79h.89l-1.24,8.74h-.89l.58-4.14h-4.77l-.58,4.14h-.89l1.23-8.74Z"/>
    </g>
  </g>
</svg>